<svg xmlns="http://www.w3.org/2000/svg" viewBox="0 0 110 90" fill="none">
  <rect x="45" y="20" width="20" height="38" rx="10" fill="#fff" stroke="#111318" stroke-width="2.8"/>
  <path d="M34 46a21 21 0 0 0 42 0M55 67v13" stroke="#111318" stroke-width="2.8" stroke-linecap="round"/>
  <path d="M22 31c-5 5-8 10-8 16m11-5c-3 3-4 6-4 10M88 31c5 5 8 10 8 16m-11-5c3 3 4 6 4 10" stroke="#111318" stroke-width="2" stroke-linecap="round"/>
  <path d="m82 16 2.2 5.8L90 24l-5.8 2.2L82 32l-2.2-5.8L74 24l5.8-2.2L82 16Z" stroke="#111318" stroke-width="2"/>
</svg>